<?xml version="1.0" encoding="utf-8"?>
<!-- Generator: Adobe Illustrator 24.1.2, SVG Export Plug-In . SVG Version: 6.00 Build 0)  -->
<svg version="1.1" id="Layer_1" xmlns="http://www.w3.org/2000/svg" xmlns:xlink="http://www.w3.org/1999/xlink" x="0px" y="0px"
	 viewBox="0 0 24.5 24.5" style="enable-background:new 0 0 24.5 24.5;" xml:space="preserve">
<style type="text/css">
	.st0{fill:#FFFFFF;}
	.st1{fill:#3C3C3B;}
</style>
<path class="st0" d="M21.2,24.5H3.4C1.5,24.5,0,23,0,21.2V3.4C0,1.5,1.5,0,3.4,0h17.8c1.9,0,3.4,1.5,3.4,3.4v17.8
	C24.5,23,23,24.5,21.2,24.5z"/>
<path class="st1" d="M12.3,10.6V8.2c0,0-0.1-1.5,0.8-2.7c0.9-1.2,2-1.5,3-1.6c0,0,1.8-0.1,2.9,0.1v2.9l-1.9,0c0,0-0.7,0-1.1,0.4
	c-0.3,0.4-0.3,0.8-0.3,1s0,2.3,0,2.3l3.2,0l-0.4,3.3h-2.8l0,10.7h-3.4V13.8l-2.8,0v-3.2L12.3,10.6z"/>
</svg>
