<?xml version="1.0" encoding="utf-8"?>
<!-- Generator: Adobe Illustrator 24.1.2, SVG Export Plug-In . SVG Version: 6.00 Build 0)  -->
<svg version="1.1" id="Layer_1" xmlns="http://www.w3.org/2000/svg" xmlns:xlink="http://www.w3.org/1999/xlink" x="0px" y="0px"
	 viewBox="0 0 395.5 40.9" style="enable-background:new 0 0 395.5 40.9;" xml:space="preserve">
<style type="text/css">
	.st0{fill:#FFFFFF;}
	.st1{fill:#BA7C39;}
</style>
<g>
	<path class="st0" d="M49.5,31.2h2.8V2.6h-2.8V1.4h10.4v18.7l11.3-9.3H68V9.6h7.8v1.2h-2.3l-9.1,7.7l10.6,12.7h3v1.2h-9.7l-8.5-10
		v8.7h2.8v1.2H49.5V31.2z"/>
	<path class="st0" d="M78.7,31.2h2.8V11.1h-2.8V9.9H89v2.8c1.8-2,3.8-3.2,6.7-3.2c1.9,0,3.4,1.5,3.4,3.4c0,1.9-1.5,3.4-3.4,3.4
		c-1.9,0-3.3-1.5-3.3-3.4c0-0.3,0-0.6,0.1-0.8c-1.7,0.6-3.3,2.3-3.5,3.3v15.8h2.8v1.2H78.7V31.2z"/>
	<path class="st0" d="M100.1,21.2c0-8.3,3.2-11.7,11.2-11.7c8.1,0,11.3,3.4,11.3,11.7c0,8.2-3.2,11.7-11.3,11.7
		C103.3,32.9,100.1,29.4,100.1,21.2z M111.3,31.6c1.7,0,3.7-0.1,3.7-3.4V14.1c0-3.3-2-3.4-3.7-3.4c-1.6,0-3.6,0.1-3.6,3.4v14.1
		C107.7,31.6,109.7,31.6,111.3,31.6z"/>
	<path class="st0" d="M125.6,31.2h2.8V11.1h-2.8V9.9H136v4.2c2.1-3,4.8-4.6,8.2-4.6c5.3,0,8.5,2.8,8.5,7.2v14.5h2.8v1.2h-13.1v-1.2
		h2.7V15.4c0-2.6-0.8-4-2.7-4c-3.7,0-6.4,3.9-6.4,7.2v12.6h2.8v1.2h-13.2V31.2z"/>
	<path class="st0" d="M158.5,21.7c0-10.6,5-12.2,11.7-12.2c8.3,0,10.7,4.8,10.8,12.5h-14.9v2.8c0,5.3,1.8,6.8,5.2,6.8
		c3.2,0,5.6-1.6,6.6-4.6l2,0.9c-1,2.3-3.2,5-8.9,5C160.9,32.8,158.5,27.7,158.5,21.7z M173,20.6v-3.8c0.1-4.4-0.7-6-3-6
		c-2.5,0-3.9,1.2-3.9,6.5v3.3H173z"/>
	<path class="st0" d="M205.4,31.2v1.3H195v-1.2h2.8V2.6H195V1.4h10.4v9.3c1.6-0.9,2.8-1.2,4.6-1.2c6.5,0,10.3,3.4,10.3,12.1
		c0,5.9-1.9,11.3-9.9,11.3C208.3,32.9,207,32.3,205.4,31.2z M209.1,31.6c3.7,0,3.6-3,3.6-4.7v-12c0-2.9-1.2-4.1-3.6-4.1
		c-2.2,0-3.1,1.4-3.7,2.3v16C206.1,30.9,207.6,31.6,209.1,31.6z"/>
	<path class="st0" d="M223.2,26.2c0-2.8,0.9-4.6,4.7-5.9c3.9-1.3,10.2-0.8,10.2-3.9v-1.2c0-1.2,0.3-4.5-3.9-4.5
		c-1.2,0-3.7,0.4-4.3,0.9c1.4,0.6,1.9,1.9,1.9,3.3c0,1.8-1.3,3-3.4,3c-2.5,0-3.5-1.7-3.5-3.3c0-3.8,4.7-5.2,9.9-5.2c9,0,11,5,11,8.4
		v13.4h2.3v1.2h-9.9v-1.2c-1.8,1.2-4.2,1.6-6.8,1.6C226.9,32.9,223.2,30.2,223.2,26.2z M234.7,31.1c1.4,0,3.5-0.7,3.5-2.6v-9.3
		c-0.7,0.7-2,1.2-3.3,1.7c-2.2,0.9-4,2-4,5.4C230.8,28.4,231.3,31.1,234.7,31.1z"/>
	<path class="st0" d="M250.5,31.2h2.8V2.6h-2.8V1.4h10.4v18.7l11.3-9.3h-3.1V9.6h7.8v1.2h-2.3l-9.1,7.7l10.6,12.7h3v1.2h-9.7
		l-8.5-10v8.7h2.8v1.2h-13.2V31.2z"/>
	<path class="st0" d="M278.7,21.7c0-10.6,5-12.2,11.7-12.2c8.3,0,10.7,4.8,10.8,12.5h-14.9v2.8c0,5.3,1.8,6.8,5.2,6.8
		c3.2,0,5.6-1.6,6.6-4.6l2,0.9c-1,2.3-3.2,5-8.9,5C281.1,32.8,278.7,27.7,278.7,21.7z M293.2,20.6v-3.8c0.1-4.4-0.7-6-3-6
		c-2.5,0-3.9,1.2-3.9,6.5v3.3H293.2z"/>
	<path class="st0" d="M304.2,31.2h2.8V11.1h-2.8V9.9h10.4v2.8c1.8-2,3.8-3.2,6.7-3.2c1.9,0,3.4,1.5,3.4,3.4c0,1.9-1.5,3.4-3.4,3.4
		s-3.3-1.5-3.3-3.4c0-0.3,0-0.6,0.1-0.8c-1.7,0.6-3.3,2.3-3.5,3.3v15.8h2.8v1.2h-13.2V31.2z"/>
	<path class="st0" d="M324.4,36.8c0-2,1.7-3.7,3.7-3.7s3.7,1.7,3.7,3.7c0,0.7-0.2,1.3-0.5,1.8c1.2-0.6,2-1.8,2.7-3.2l1.8-4
		l-8.9-20.3H325V9.9h12v1.2h-2.4l5.2,12.7l5.6-12.7h-2.9V9.9h6.6v1.2h-1.6l-11.9,25.3c-1.4,3-4.6,4.3-7.4,4.2
		C326,40.6,324.4,38.9,324.4,36.8z"/>
</g>
<rect x="18.3" y="13.5" transform="matrix(6.123234e-17 -1 1 6.123234e-17 17.9923 52.8693)" class="st1" width="34.4" height="7.9"/>
<rect x="342.9" y="13.5" transform="matrix(6.123234e-17 -1 1 6.123234e-17 342.6731 377.5501)" class="st1" width="34.4" height="7.9"/>
<g>
	<polygon class="st1" points="26.2,26.6 28.9,26.1 28.9,8.8 26.2,8.3 	"/>
	<path class="st1" d="M23.7,7.8L12,5.6c0,0-11.7-3.2-11.7,11.8c0,15,11.7,11.8,11.7,11.8l11.7-2.2V7.8z"/>
</g>
<g>
	<polygon class="st1" points="366.6,26.1 369.2,26.6 369.2,8.3 366.6,8.8 	"/>
	<path class="st1" d="M383.6,5.6l-11.8,2.2v19.3l11.8,2.2c0,0,11.7,3.2,11.7-11.8C395.3,2.5,383.6,5.6,383.6,5.6z"/>
</g>
<rect x="39.4" y="0.3" class="st1" width="2.9" height="1.5"/>
<rect x="39.4" y="33.1" class="st1" width="2.9" height="1.5"/>
<g>
	<rect x="353.3" y="0.3" class="st1" width="2.9" height="1.5"/>
	<rect x="353.3" y="33.1" class="st1" width="2.9" height="1.5"/>
</g>
</svg>
